<svg xmlns="http://www.w3.org/2000/svg" width="5.12" height="9.16" viewBox="0 0 5.12 9.16">
  <defs>
    <style>
      .cls-1 {
        fill: #663cfc;
        fill-rule: evenodd;
      }
    </style>
  </defs>
  <path id="_-e-Read_More_copy" data-name="-e-Read More   copy" class="cls-1" d="M1011.46,1807.02l-4-4a0.509,0.509,0,0,0-.4-0.17,0.523,0.523,0,0,0-.4.17,0.544,0.544,0,0,0-.17.4v8a0.581,0.581,0,0,0,.57.57,0.544,0.544,0,0,0,.4-0.17l4-4a0.523,0.523,0,0,0,.17-0.4,0.509,0.509,0,0,0-.17-0.4h0Z" transform="translate(-1006.5 -1802.84)"/>
</svg>
