<svg xmlns="http://www.w3.org/2000/svg" xmlns:xlink="http://www.w3.org/1999/xlink" viewBox="0 0 379.41 319.27"><defs><style>.cls-1{fill:none;}.cls-2{clip-path:url(#clip-path);}</style><clipPath id="clip-path" transform="translate(0 -0.73)"><rect class="cls-1" x="0.06" width="379.94" height="321"/></clipPath></defs><title>levels</title><g id="Layer_2" data-name="Layer 2"><g id="Layer_1-2" data-name="Layer 1"><g class="cls-2"><path d="M113.6,12.73H367.41v9.36H113.6Zm0,21.36H367.41V173.68H113.6ZM329,207.28H75.2V46.33h26.4V179.68a6,6,0,0,0,6,6H329Zm-26.4,52.15a7.76,7.76,0,0,1-7.76,7.76H19.76A7.76,7.76,0,0,1,12,259.43V77.2a7.77,7.77,0,0,1,7.76-7.76H63.2v6.4H24.4a6,6,0,0,0-6,6v173a6,6,0,0,0,6,6H290.21a6,6,0,0,0,6-6V219.28h6.4ZM137.24,308l6.42-28.81H171L177.36,308Zm-68-88.72h215v29.51H30.4V87.84H63.2V213.28A6,6,0,0,0,69.2,219.28ZM373.41.73H107.6a6,6,0,0,0-6,6v27.6H69.2a6,6,0,0,0-6,6V57.44H19.76A19.78,19.78,0,0,0,0,77.2V259.43a19.78,19.78,0,0,0,19.76,19.76h111.6L125,308H104.59a6,6,0,0,0,0,12H210a6,6,0,0,0,0-12H189.66l-6.41-28.81h111.6a19.78,19.78,0,0,0,19.76-19.76V219.28H335a6,6,0,0,0,6-6v-27.6h32.4a6,6,0,0,0,6-6V6.73A6,6,0,0,0,373.41.73Z" transform="translate(0 -0.73)"/></g><path d="M132,52.49h47.25V155.28H132Zm-6,114.79h59.25a6,6,0,0,0,6-6V46.49a6,6,0,0,0-6-6H126a6,6,0,0,0-6,6V161.28A6,6,0,0,0,126,167.28Z" transform="translate(0 -0.73)"/><path d="M301.84,52.49h47.25V155.28H301.84Zm-6,114.79h59.25a6,6,0,0,0,6-6V46.49a6,6,0,0,0-6-6H295.84a6,6,0,0,0-6,6V161.28A6,6,0,0,0,295.84,167.28Z" transform="translate(0 -0.73)"/><path d="M216.92,52.49h47.25V155.28H216.92Zm-6,114.79h59.25a6,6,0,0,0,6-6V46.49a6,6,0,0,0-6-6H210.92a6,6,0,0,0-6,6V161.28A6,6,0,0,0,210.92,167.28Z" transform="translate(0 -0.73)"/></g></g></svg>