<svg xmlns="http://www.w3.org/2000/svg" width="13.25" height="13.25" viewBox="0 0 13.25 13.25">
  <defs>
    <style>
      .cls-1 {
        fill: #663cfc;
        fill-rule: evenodd;
      }
    </style>
  </defs>
  <path id="_-e-_" data-name="-e-ïƒ" class="cls-1" d="M988.427,3194.03l-1.194,1.19a0.786,0.786,0,0,1-.552.21,0.774,0.774,0,0,1-.553-0.22l-1.673-1.68a0.76,0.76,0,0,1-.228-0.56,0.8,0.8,0,0,1,.268-0.59c0.017,0.02.067,0.07,0.151,0.16s0.142,0.14.174,0.17a1.676,1.676,0,0,0,.155.12,0.72,0.72,0,0,0,.207.11,0.781,0.781,0,0,0,.223.03,0.782,0.782,0,0,0,.78-0.78,0.883,0.883,0,0,0-.028-0.23,0.724,0.724,0,0,0-.106-0.2,1.941,1.941,0,0,0-.122-0.16c-0.03-.03-0.088-0.09-0.175-0.17a1.573,1.573,0,0,0-.154-0.15,0.795,0.795,0,0,1,1.137-.04l1.69,1.69a0.776,0.776,0,0,1,.228.56,0.732,0.732,0,0,1-.228.54h0Zm-5.751-5.68c-0.017-.01-0.067-0.07-0.151-0.15s-0.142-.15-0.174-0.18a1.676,1.676,0,0,0-.155-0.12,0.506,0.506,0,0,0-.207-0.1,0.786,0.786,0,0,0-.223-0.03,0.753,0.753,0,0,0-.553.22,0.78,0.78,0,0,0-.227.56,0.818,0.818,0,0,0,.028.22,0.63,0.63,0,0,0,.106.21,1.353,1.353,0,0,0,.122.15c0.029,0.03.088,0.09,0.174,0.18s0.139,0.13.155,0.15a0.815,0.815,0,0,1-.585.25,0.734,0.734,0,0,1-.552-0.22l-1.69-1.69a0.777,0.777,0,0,1,0-1.1l1.194-1.18a0.769,0.769,0,0,1,.552-0.22,0.725,0.725,0,0,1,.553.23l1.673,1.68a0.738,0.738,0,0,1,.228.55,0.784,0.784,0,0,1-.268.59h0Zm6.856,3.48-1.69-1.69a2.234,2.234,0,0,0-1.657-.68,2.3,2.3,0,0,0-1.69.71l-0.715-.71a2.289,2.289,0,0,0,.715-1.7,2.244,2.244,0,0,0-.674-1.65l-1.673-1.68a2.35,2.35,0,0,0-3.307-.02l-1.194,1.19a2.327,2.327,0,0,0-.008,3.3l1.69,1.69a2.243,2.243,0,0,0,1.657.69,2.268,2.268,0,0,0,1.69-.72l0.714,0.72a2.27,2.27,0,0,0-.714,1.69,2.244,2.244,0,0,0,.674,1.65l1.673,1.68a2.2,2.2,0,0,0,1.658.7,2.248,2.248,0,0,0,1.649-.68l1.194-1.18a2.22,2.22,0,0,0,.69-1.65,2.254,2.254,0,0,0-.682-1.66h0Z" transform="translate(-976.969 -3183.75)"/>
</svg>
