<svg xmlns="http://www.w3.org/2000/svg" xmlns:xlink="http://www.w3.org/1999/xlink" viewBox="0 0 371.61 512"><defs><style>.cls-1{fill:none;}.cls-2{clip-path:url(#clip-path);}</style><clipPath id="clip-path"><rect class="cls-1" width="371.61" height="512"/></clipPath></defs><title>pencil-case</title><g id="Layer_2" data-name="Layer 2"><g id="Layer_1-2" data-name="Layer 1"><g class="cls-2"><path d="M221.35,329.33a26,26,0,1,0,26,26,26.06,26.06,0,0,0-26-26m0,35.39a9.36,9.36,0,1,1,9.36-9.36A9.37,9.37,0,0,1,221.35,364.72Z"/><path d="M356,49.42,359.54,39a8.33,8.33,0,0,0-15.78-5.36l-3.55,10.43a34.21,34.21,0,0,0-35.12,23.07L272.4,163.33H262.33l-1.7-120.87a20.67,20.67,0,0,0-41.34,0l-1.7,120.87H198.5V66a8.33,8.33,0,0,0-1.41-4.64L158.4,3.69a8.33,8.33,0,0,0-13.84,0l-38.68,57.7A8.33,8.33,0,0,0,104.47,66v97.3H84.12a8.33,8.33,0,0,0,0,16.66H85.8v28.1H53.58A53.65,53.65,0,0,0,0,261.68V383.81a53.65,53.65,0,0,0,53.58,53.58H85.8v26.33A48.33,48.33,0,0,0,134.07,512H309.72A48.34,48.34,0,0,0,358,463.72V180h1.67a8.33,8.33,0,1,0,0-16.66h-15.1l25.22-74.22A34.25,34.25,0,0,0,356,49.42M85.8,389.64H56.58a8.84,8.84,0,0,1-8.83-8.83V264.67a8.84,8.84,0,0,1,8.83-8.82H85.8Zm0-150.46H56.58a25.52,25.52,0,0,0-25.49,25.49V380.81A25.51,25.51,0,0,0,56.58,406.3H85.8v14.43H53.58a37,37,0,0,1-36.92-36.92V261.68a37,37,0,0,1,36.92-36.92H85.8Zm216-110.68L335,139.76l-8,23.57H290ZM236,42.69a4,4,0,0,1,8,0l1.7,120.64H234.25ZM223.28,180a8,8,0,0,0,1.45.32v94.78a8.25,8.25,0,1,1-16.49,0V248.25a24.92,24.92,0,1,0-49.83,0v52a8.25,8.25,0,1,1-16.49,0V180Zm-41.45-16.66h-22V82a105.65,105.65,0,0,0,22-4.1Zm-30.35-140,8.29,12.36a28.83,28.83,0,0,1-8.29,1.22,28.48,28.48,0,0,1-8.29-1.22ZM133.67,49.86a44.94,44.94,0,0,0,35.62,0l8,12a89.53,89.53,0,0,1-51.68,0Zm-12.54,28a105.65,105.65,0,0,0,22,4.1v81.33h-22Zm220.2,385.82a31.65,31.65,0,0,1-31.61,31.61H134.07a31.65,31.65,0,0,1-31.61-31.61V180h22.79V300.3a24.92,24.92,0,0,0,49.83,0V248.25a8.25,8.25,0,1,1,16.49,0V275.1a24.92,24.92,0,0,0,49.83,0V180.39l99.93-.4V463.72ZM354,83.75,340.34,124,307.2,112.72l13.67-40.23A17.5,17.5,0,1,1,354,83.75Z"/></g></g></g></svg>