<svg xmlns="http://www.w3.org/2000/svg" viewBox="0 0 64.4 64.4"><defs><style>.cls-1{opacity:0.44;}</style></defs><title>play-button</title><g id="Layer_2" data-name="Layer 2"><g id="Layer_1-2" data-name="Layer 1"><path d="M27.4,42.68v-21L42.78,32.2ZM44.65,31.54l-17.6-12a.8.8,0,0,0-1.25.66v24a.79.79,0,0,0,.43.71.78.78,0,0,0,.37.09.82.82,0,0,0,.45-.14l17.6-12A.8.8,0,0,0,45,32.2.79.79,0,0,0,44.65,31.54Z"/><path d="M32.2,54.6A22.4,22.4,0,1,1,54.6,32.2,22.43,22.43,0,0,1,32.2,54.6Zm0-46.4a24,24,0,1,0,24,24A24,24,0,0,0,32.2,8.2Z"/><g class="cls-1"><path d="M32.2,64.4A32.2,32.2,0,1,1,64.4,32.2,32.24,32.24,0,0,1,32.2,64.4ZM32.2.6A31.6,31.6,0,1,0,63.8,32.2,31.63,31.63,0,0,0,32.2.6Z"/></g></g></g></svg>