<svg xmlns="http://www.w3.org/2000/svg" xmlns:xlink="http://www.w3.org/1999/xlink" viewBox="0 0 409.6 409.6"><defs><style>.cls-1{fill:none;}.cls-2{clip-path:url(#clip-path);}</style><clipPath id="clip-path" transform="translate(0 -0.4)"><rect class="cls-1" x="0.06" width="409.94" height="411"/></clipPath></defs><title>target</title><g id="Layer_2" data-name="Layer 2"><g id="Layer_1-2" data-name="Layer 1"><g class="cls-2"><path d="M192.91,142.24A74.95,74.95,0,1,0,251,169.9l23.15-23.15a107.6,107.6,0,1,1-10.86-10.86L240.1,159A74.52,74.52,0,0,0,192.91,142.24Zm-5.43,80.28a7.67,7.67,0,0,0,10.85,0L240,180.83A59.61,59.61,0,1,1,229.17,170l-41.7,41.7A7.67,7.67,0,0,0,187.48,222.52Zm160.71-13.1H337.37a7.68,7.68,0,0,0,0,15.35h10.82c-3.89,79.64-68,143.72-147.61,147.61V361.56a7.68,7.68,0,0,0-15.35,0v10.82c-79.64-3.89-143.72-68-147.61-147.61H48.44a7.68,7.68,0,0,0,0-15.35H37.62c3.89-79.63,68-143.72,147.61-147.61V72.63a7.68,7.68,0,0,0,15.35,0V61.81a154.88,154.88,0,0,1,96.65,40.11L274.12,125A123,123,0,1,0,285,135.88l23.11-23.11A154.92,154.92,0,0,1,348.19,209.42ZM355,25.1l1.91,21a7.69,7.69,0,0,0,6.95,6.95l21,1.91-27.2,27.2-26.87-3-3-26.87Zm4.64,72.72a6,6,0,0,0,.85.05A7.64,7.64,0,0,0,366,95.62l41.4-41.39a7.68,7.68,0,0,0-4.73-13.08l-31-2.81-2.81-31a7.68,7.68,0,0,0-13.08-4.73l-41.39,41.4a7.66,7.66,0,0,0-2.2,6.27l3.66,33-7.75,7.75a170.21,170.21,0,0,0-107.51-44.6V31.87a7.68,7.68,0,1,0-15.35,0V46.45c-88.11,3.91-159.06,74.87-163,163H7.68a7.68,7.68,0,1,0,0,15.35H22.25c3.92,88.11,74.87,159.06,163,163v14.57a7.68,7.68,0,1,0,15.35,0V387.75c88.1-3.92,159.06-74.87,163-163h14.58a7.68,7.68,0,1,0,0-15.35H363.55A170.1,170.1,0,0,0,319,101.91l7.75-7.75Z" transform="translate(0 -0.4)"/></g></g></g></svg>