<svg xmlns="http://www.w3.org/2000/svg" width="10.56" height="8.56" viewBox="0 0 10.56 8.56">
  <defs>
    <style>
      .cls-1 {
        fill: #fff;
        fill-rule: evenodd;
      }
    </style>
  </defs>
  <path id="_-e-_" data-name="-e-" class="cls-1" d="M1284.19,5593.85a2.076,2.076,0,0,0,.95-1.19,4.005,4.005,0,0,1-1.37.52,2.161,2.161,0,0,0-3.74,1.48,2.921,2.921,0,0,0,.05.5,6.158,6.158,0,0,1-2.49-.67,6.225,6.225,0,0,1-1.97-1.59,2.182,2.182,0,0,0-.03,2.12,2.161,2.161,0,0,0,.7.77,2.26,2.26,0,0,1-.98-0.28v0.03a2.167,2.167,0,0,0,1.74,2.12,2.239,2.239,0,0,1-.57.08,2.028,2.028,0,0,1-.41-0.04,2.152,2.152,0,0,0,2.02,1.5,4.378,4.378,0,0,1-3.21.9,6.024,6.024,0,0,0,3.33.97,6.442,6.442,0,0,0,2.16-.36,5.7,5.7,0,0,0,1.73-.98,6.632,6.632,0,0,0,1.23-1.41,6.264,6.264,0,0,0,.78-1.66,6.152,6.152,0,0,0,.25-1.74,2.024,2.024,0,0,0-.01-0.28,4.463,4.463,0,0,0,1.09-1.12,4.139,4.139,0,0,1-1.25.33h0Z" transform="translate(-1274.88 -5592.5)"/>
</svg>
