<svg xmlns="http://www.w3.org/2000/svg" width="14.563" height="9.37" viewBox="0 0 14.563 9.37">
  <defs>
    <style>
      .cls-1 {
        fill: #663cfc;
        fill-rule: evenodd;
      }
    </style>
  </defs>
  <path id="_-e-_" data-name="-e-ï®" class="cls-1" d="M939.635,3193.06a6.787,6.787,0,0,1-7.059,0,8.408,8.408,0,0,1-2.71-2.65,7.953,7.953,0,0,1,3.1-2.87,3.64,3.64,0,1,0,6.287,0,7.951,7.951,0,0,1,3.1,2.87A8.4,8.4,0,0,1,939.635,3193.06Zm-3.53-5.38a1.682,1.682,0,0,0-1.689,1.69,0.351,0.351,0,0,1-.114.27,0.377,0.377,0,0,1-.552,0,0.351,0.351,0,0,1-.114-0.27,2.47,2.47,0,0,1,2.469-2.47,0.4,0.4,0,0,1,.277.11,0.391,0.391,0,0,1,.113.28,0.353,0.353,0,0,1-.113.27,0.367,0.367,0,0,1-.277.12h0Zm7.117,2.17a8.661,8.661,0,0,0-3.059-2.99,7.85,7.85,0,0,0-8.115,0,8.653,8.653,0,0,0-3.059,2.99,1.11,1.11,0,0,0-.162.56,1.138,1.138,0,0,0,.162.56,8.737,8.737,0,0,0,3.059,2.99,7.85,7.85,0,0,0,8.115,0,8.661,8.661,0,0,0,3.059-2.99,1.138,1.138,0,0,0,.162-0.56,1.11,1.11,0,0,0-.162-0.56h0Z" transform="translate(-928.812 -3185.72)"/>
</svg>
